<svg id="visual" viewBox="0 0 1080 200" width="1080" height="200" xmlns="http://www.w3.org/2000/svg" xmlns:xlink="http://www.w3.org/1999/xlink" version="1.1"><rect x="0" y="0" width="1080" height="200" fill="#ebebeb"></rect><path d="M0 128L25.7 131.8C51.3 135.7 102.7 143.3 154.2 148.3C205.7 153.3 257.3 155.7 308.8 154.3C360.3 153 411.7 148 463 142.7C514.3 137.3 565.7 131.7 617 134.7C668.3 137.7 719.7 149.3 771.2 155.3C822.7 161.3 874.3 161.7 925.8 157.8C977.3 154 1028.7 146 1054.3 142L1080 138L1080 0L1054.3 0C1028.7 0 977.3 0 925.8 0C874.3 0 822.7 0 771.2 0C719.7 0 668.3 0 617 0C565.7 0 514.3 0 463 0C411.7 0 360.3 0 308.8 0C257.3 0 205.7 0 154.2 0C102.7 0 51.3 0 25.7 0L0 0Z" fill="#ebebeb"></path><path d="M0 109L25.7 111.7C51.3 114.3 102.7 119.7 154.2 127C205.7 134.3 257.3 143.7 308.8 144.3C360.3 145 411.7 137 463 137C514.3 137 565.7 145 617 150.2C668.3 155.3 719.7 157.7 771.2 159.8C822.7 162 874.3 164 925.8 156.8C977.3 149.7 1028.7 133.3 1054.3 125.2L1080 117L1080 0L1054.3 0C1028.7 0 977.3 0 925.8 0C874.3 0 822.7 0 771.2 0C719.7 0 668.3 0 617 0C565.7 0 514.3 0 463 0C411.7 0 360.3 0 308.8 0C257.3 0 205.7 0 154.2 0C102.7 0 51.3 0 25.7 0L0 0Z" fill="#f0f0f0"></path><path d="M0 115L25.7 117C51.3 119 102.7 123 154.2 116.2C205.7 109.3 257.3 91.7 308.8 92.7C360.3 93.7 411.7 113.3 463 121.2C514.3 129 565.7 125 617 124.5C668.3 124 719.7 127 771.2 128.5C822.7 130 874.3 130 925.8 120.3C977.3 110.7 1028.7 91.3 1054.3 81.7L1080 72L1080 0L1054.3 0C1028.7 0 977.3 0 925.8 0C874.3 0 822.7 0 771.2 0C719.7 0 668.3 0 617 0C565.7 0 514.3 0 463 0C411.7 0 360.3 0 308.8 0C257.3 0 205.7 0 154.2 0C102.7 0 51.3 0 25.7 0L0 0Z" fill="#f5f5f5"></path><path d="M0 59L25.7 58C51.3 57 102.7 55 154.2 58.2C205.7 61.3 257.3 69.7 308.8 73.7C360.3 77.7 411.7 77.3 463 77.3C514.3 77.3 565.7 77.7 617 75C668.3 72.3 719.7 66.7 771.2 64.3C822.7 62 874.3 63 925.8 64.7C977.3 66.3 1028.7 68.7 1054.3 69.8L1080 71L1080 0L1054.3 0C1028.7 0 977.3 0 925.8 0C874.3 0 822.7 0 771.2 0C719.7 0 668.3 0 617 0C565.7 0 514.3 0 463 0C411.7 0 360.3 0 308.8 0C257.3 0 205.7 0 154.2 0C102.7 0 51.3 0 25.7 0L0 0Z" fill="#fafafa"></path><path d="M0 27L25.7 32C51.3 37 102.7 47 154.2 51.3C205.7 55.7 257.3 54.3 308.8 54C360.3 53.7 411.7 54.3 463 52.8C514.3 51.3 565.7 47.7 617 45.3C668.3 43 719.7 42 771.2 39.5C822.7 37 874.3 33 925.8 35.8C977.3 38.7 1028.7 48.3 1054.3 53.2L1080 58L1080 0L1054.3 0C1028.7 0 977.3 0 925.8 0C874.3 0 822.7 0 771.2 0C719.7 0 668.3 0 617 0C565.7 0 514.3 0 463 0C411.7 0 360.3 0 308.8 0C257.3 0 205.7 0 154.2 0C102.7 0 51.3 0 25.7 0L0 0Z" fill="#ffffff"></path></svg>