<svg id="visual" viewBox="0 0 1080 200" width="1080" height="200" xmlns="http://www.w3.org/2000/svg" xmlns:xlink="http://www.w3.org/1999/xlink" version="1.1">
<rect x="0" y="0" width="1080" height="200" fill="#151515"></rect>
<path d="M0 137L25.7 141.5C51.3 146 102.7 155 154.2 156.7C205.7 158.3 257.3 152.7 308.8 148.8C360.3 145 411.7 143 463 149C514.3 155 565.7 169 617 168.8C668.3 168.7 719.7 154.3 771.2 146.5C822.7 138.7 874.3 137.3 925.8 142.3C977.3 147.3 1028.7 158.7 1054.3 164.3L1080 170L1080 0L1054.3 0C1028.7 0 977.3 0 925.8 0C874.3 0 822.7 0 771.2 0C719.7 0 668.3 0 617 0C565.7 0 514.3 0 463 0C411.7 0 360.3 0 308.8 0C257.3 0 205.7 0 154.2 0C102.7 0 51.3 0 25.7 0L0 0Z" fill="#151515"></path>
<path d="M0 132L25.7 134.2C51.3 136.3 102.7 140.7 154.2 146.2C205.7 151.7 257.3 158.3 308.8 151.2C360.3 144 411.7 123 463 121.5C514.3 120 565.7 138 617 143.3C668.3 148.7 719.7 141.3 771.2 138.2C822.7 135 874.3 136 925.8 140C977.3 144 1028.7 151 1054.3 154.5L1080 158L1080 0L1054.3 0C1028.7 0 977.3 0 925.8 0C874.3 0 822.7 0 771.2 0C719.7 0 668.3 0 617 0C565.7 0 514.3 0 463 0C411.7 0 360.3 0 308.8 0C257.3 0 205.7 0 154.2 0C102.7 0 51.3 0 25.7 0L0 0Z" fill="#434343"></path>
<path d="M0 99L25.7 95.3C51.3 91.7 102.7 84.3 154.2 84.2C205.7 84 257.3 91 308.8 99.7C360.3 108.3 411.7 118.7 463 119.2C514.3 119.7 565.7 110.3 617 110.2C668.3 110 719.7 119 771.2 114.2C822.7 109.3 874.3 90.7 925.8 85.5C977.3 80.3 1028.7 88.7 1054.3 92.8L1080 97L1080 0L1054.3 0C1028.7 0 977.3 0 925.8 0C874.3 0 822.7 0 771.2 0C719.7 0 668.3 0 617 0C565.7 0 514.3 0 463 0C411.7 0 360.3 0 308.8 0C257.3 0 205.7 0 154.2 0C102.7 0 51.3 0 25.7 0L0 0Z" fill="#777777"></path>
<path d="M0 90L25.7 90.2C51.3 90.3 102.7 90.7 154.2 85.5C205.7 80.3 257.3 69.7 308.8 63.2C360.3 56.7 411.7 54.3 463 56.7C514.3 59 565.7 66 617 72.3C668.3 78.7 719.7 84.3 771.2 88.3C822.7 92.3 874.3 94.7 925.8 90.7C977.3 86.7 1028.7 76.3 1054.3 71.2L1080 66L1080 0L1054.3 0C1028.7 0 977.3 0 925.8 0C874.3 0 822.7 0 771.2 0C719.7 0 668.3 0 617 0C565.7 0 514.3 0 463 0C411.7 0 360.3 0 308.8 0C257.3 0 205.7 0 154.2 0C102.7 0 51.3 0 25.7 0L0 0Z" fill="#afafaf"></path>
<path d="M0 61L25.7 54.8C51.3 48.7 102.7 36.3 154.2 33.7C205.7 31 257.3 38 308.8 39.5C360.3 41 411.7 37 463 33.8C514.3 30.7 565.7 28.3 617 26.2C668.3 24 719.7 22 771.2 27C822.7 32 874.3 44 925.8 49.8C977.3 55.7 1028.7 55.3 1054.3 55.2L1080 55L1080 0L1054.3 0C1028.7 0 977.3 0 925.8 0C874.3 0 822.7 0 771.2 0C719.7 0 668.3 0 617 0C565.7 0 514.3 0 463 0C411.7 0 360.3 0 308.8 0C257.3 0 205.7 0 154.2 0C102.7 0 51.3 0 25.7 0L0 0Z" fill="#ebebeb"></path></svg>