<svg id="visual" viewBox="0 0 1080 200" width="1080" height="200" xmlns="http://www.w3.org/2000/svg" xmlns:xlink="http://www.w3.org/1999/xlink" version="1.1"><rect x="0" y="0" width="1080" height="200" fill="#0f0909"></rect><path d="M0 152L25.7 155.2C51.3 158.3 102.7 164.7 154.2 168.2C205.7 171.7 257.3 172.3 308.8 174.2C360.3 176 411.7 179 463 177.2C514.3 175.3 565.7 168.7 617 159.8C668.3 151 719.7 140 771.2 141.3C822.7 142.7 874.3 156.3 925.8 155.8C977.3 155.3 1028.7 140.7 1054.3 133.3L1080 126L1080 0L1054.3 0C1028.7 0 977.3 0 925.8 0C874.3 0 822.7 0 771.2 0C719.7 0 668.3 0 617 0C565.7 0 514.3 0 463 0C411.7 0 360.3 0 308.8 0C257.3 0 205.7 0 154.2 0C102.7 0 51.3 0 25.7 0L0 0Z" fill="#0f0909"></path><path d="M0 171L25.7 161.7C51.3 152.3 102.7 133.7 154.2 130.8C205.7 128 257.3 141 308.8 138.7C360.3 136.3 411.7 118.7 463 114.7C514.3 110.7 565.7 120.3 617 124.5C668.3 128.7 719.7 127.3 771.2 127.5C822.7 127.7 874.3 129.3 925.8 125.5C977.3 121.7 1028.7 112.3 1054.3 107.7L1080 103L1080 0L1054.3 0C1028.7 0 977.3 0 925.8 0C874.3 0 822.7 0 771.2 0C719.7 0 668.3 0 617 0C565.7 0 514.3 0 463 0C411.7 0 360.3 0 308.8 0C257.3 0 205.7 0 154.2 0C102.7 0 51.3 0 25.7 0L0 0Z" fill="#110d0d"></path><path d="M0 97L25.7 99C51.3 101 102.7 105 154.2 110.3C205.7 115.7 257.3 122.3 308.8 123.8C360.3 125.3 411.7 121.7 463 121.8C514.3 122 565.7 126 617 124.7C668.3 123.3 719.7 116.7 771.2 107.7C822.7 98.7 874.3 87.3 925.8 86.2C977.3 85 1028.7 94 1054.3 98.5L1080 103L1080 0L1054.3 0C1028.7 0 977.3 0 925.8 0C874.3 0 822.7 0 771.2 0C719.7 0 668.3 0 617 0C565.7 0 514.3 0 463 0C411.7 0 360.3 0 308.8 0C257.3 0 205.7 0 154.2 0C102.7 0 51.3 0 25.7 0L0 0Z" fill="#121010"></path><path d="M0 54L25.7 59.3C51.3 64.7 102.7 75.3 154.2 80.8C205.7 86.3 257.3 86.7 308.8 82C360.3 77.3 411.7 67.7 463 65.3C514.3 63 565.7 68 617 70.2C668.3 72.3 719.7 71.7 771.2 71.5C822.7 71.3 874.3 71.7 925.8 74.7C977.3 77.7 1028.7 83.3 1054.3 86.2L1080 89L1080 0L1054.3 0C1028.7 0 977.3 0 925.8 0C874.3 0 822.7 0 771.2 0C719.7 0 668.3 0 617 0C565.7 0 514.3 0 463 0C411.7 0 360.3 0 308.8 0C257.3 0 205.7 0 154.2 0C102.7 0 51.3 0 25.7 0L0 0Z" fill="#141313"></path><path d="M0 29L25.7 33.5C51.3 38 102.7 47 154.2 49.3C205.7 51.7 257.3 47.3 308.8 42.2C360.3 37 411.7 31 463 33.2C514.3 35.3 565.7 45.7 617 45.8C668.3 46 719.7 36 771.2 30.8C822.7 25.7 874.3 25.3 925.8 25.2C977.3 25 1028.7 25 1054.3 25L1080 25L1080 0L1054.3 0C1028.7 0 977.3 0 925.8 0C874.3 0 822.7 0 771.2 0C719.7 0 668.3 0 617 0C565.7 0 514.3 0 463 0C411.7 0 360.3 0 308.8 0C257.3 0 205.7 0 154.2 0C102.7 0 51.3 0 25.7 0L0 0Z" fill="#151515"></path></svg>